<?xml version="1.0" encoding="utf-8"?>
<!-- Generator: Adobe Illustrator 23.0.1, SVG Export Plug-In . SVG Version: 6.00 Build 0)  -->
<svg version="1.1" id="Layer_1" xmlns="http://www.w3.org/2000/svg" xmlns:xlink="http://www.w3.org/1999/xlink" x="0px" y="0px"
	 viewBox="0 0 512 512" style="enable-background:new 0 0 512 512;" xml:space="preserve">
<style type="text/css">
	.st0{fill:#007AC1;stroke:#000000;stroke-width:3;stroke-miterlimit:10;}
	.st1{fill:#03A9F4;stroke:#000000;stroke-width:3;stroke-miterlimit:10;}
	.st2{fill:#FF9800;stroke:#000000;stroke-width:3;stroke-miterlimit:10;}
	.st3{fill:none;stroke:#000000;stroke-width:3;stroke-miterlimit:10;}
</style>
<path class="st0" d="M433.68,98.81L353.6,18.73c-0.63-0.63-1.71-0.19-1.71,0.7v81.09h81.09C433.87,100.52,434.31,99.44,433.68,98.81
	z"/>
<path class="st1" d="M435.39,100.52v374.45c0,11.05-8.96,20.01-20.01,20.01H96.62c-11.05,0-20.01-8.96-20.01-20.01V37.03
	c0-11.05,8.96-20.01,20.01-20.01h255.27l1.71,1.71c-0.63-0.63-1.71-0.19-1.71,0.7v81.09h81.09c0.89,0,1.33-1.08,0.7-1.71
	L435.39,100.52z"/>
<ellipse transform="matrix(0.2298 -0.9732 0.9732 0.2298 55.878 217.0726)" class="st2" cx="165.08" cy="73.23" rx="35.42" ry="35.42"/>
<path class="st2" d="M223.84,165.57H106.31c0,0,0-56.92,58.77-56.92C223.84,108.65,223.84,165.57,223.84,165.57z"/>
<path class="st2" d="M216.15,242.68v27.36c0,11.35-16.48,20.87-38.7,23.48c-3.94,0.47-8.07,0.72-12.31,0.72
	c-28.16,0-51-10.83-51-24.19v-26.92l51,19.9L216.15,242.68z"/>
<polygon class="st2" points="241.97,232.38 216.15,242.68 165.15,263.01 114.15,243.12 86.63,232.38 164.3,205.8 "/>
<rect x="125.9" y="364.89" class="st2" width="31.9" height="98.29"/>
<rect x="174.07" y="329.23" class="st2" width="31.9" height="133.94"/>
<line class="st3" x1="254.54" y1="67.01" x2="311.86" y2="67.01"/>
<line class="st3" x1="254.54" y1="102.06" x2="340.48" y2="102.06"/>
<line class="st3" x1="254.54" y1="137.11" x2="415" y2="137.11"/>
<line class="st3" x1="254.54" y1="207.21" x2="415" y2="207.21"/>
<line class="st3" x1="254.54" y1="242.26" x2="384.09" y2="242.26"/>
<line class="st3" x1="254.54" y1="277.31" x2="415" y2="277.31"/>
<line class="st3" x1="254.54" y1="356.35" x2="384.09" y2="356.35"/>
<line class="st3" x1="254.54" y1="391.4" x2="402.83" y2="391.4"/>
<line class="st3" x1="254.54" y1="426.45" x2="415" y2="426.45"/>
</svg>
